<?xml version="1.0" encoding="utf-8"?>
<!-- Generator: Adobe Illustrator 21.0.0, SVG Export Plug-In . SVG Version: 6.00 Build 0)  -->
<svg version="1.1" id="Layer_1" xmlns="http://www.w3.org/2000/svg" xmlns:xlink="http://www.w3.org/1999/xlink" x="0px" y="0px"
	 viewBox="0 0 300 84" style="enable-background:new 0 0 300 84;" xml:space="preserve">
<g id="yjogUt.tif">
	<g>
		<path d="M130.4,42.7c4.3,1.7,4.9,5.4,5.2,9.2c0.1,1.4,0.1,2.9,0.3,4.3c0.2,1.4,0.6,2.7,0.9,4.1c-0.2,0-0.5,0.1-0.8,0.1
			c-1.6,0-3.2,0-4.8,0c-2.4,0-2.5,0-2.8-2.5c-0.3-2.4-0.5-4.7-0.8-7.1c-0.5-3.5-2-4.9-5.5-5.1c-2.6-0.1-5.1,0-7.7-0.1
			c-0.9,0-0.9,0.5-0.9,1.2c0,4,0,8,0,12c0,0.5,0,0.9,0,1.5c-2.7,0-5.3,0-8,0c0-12.5,0-24.9,0-37.4c0.3,0,0.6-0.1,0.9-0.1
			c6.3,0,12.6-0.1,18.9,0c5.3,0.1,9.2,3,10.4,7.6C137.1,35.5,135.3,39.6,130.4,42.7z M113.5,39.8c3.4,0,6.7,0.1,10.1,0
			c2.7-0.1,4.2-1.8,4.3-4.4c0.1-3.8-0.9-5.6-4-5.8c-3.2-0.3-6.4-0.2-9.6-0.2c-0.3,0-0.8,0.5-0.8,0.9
			C113.5,33.3,113.5,36.4,113.5,39.8z"/>
		<path d="M102.2,60.4c-2.7,0-5.2,0-7.6,0c-0.4,0-0.9-0.5-1-0.9c-0.8-2.1-1.5-4.2-2.1-6.4c-0.2-0.8-0.6-1.1-1.5-1.1
			c-3.9,0-7.7,0-11.6,0c-0.9,0-1.2,0.3-1.5,1.1c-0.7,2.1-1.4,4.3-2.2,6.4c-0.1,0.3-0.5,0.9-0.8,0.9c-2.5,0.1-5,0-7.7,0
			c0.9-2.5,1.8-4.9,2.6-7.2c3.6-9.7,7.2-19.4,10.8-29.1c0.4-1,0.8-1.4,1.8-1.3c1.9,0.1,3.7,0.1,5.6,0c1-0.1,1.5,0.3,1.9,1.3
			c2.9,8.1,5.9,16.2,8.9,24.2c1.3,3.7,2.7,7.3,4,11C102,59.6,102.1,59.9,102.2,60.4z M79.5,45.8c3.3,0,6.3,0,9.4,0
			c-1.5-4.6-3-9-4.5-13.4c-0.1,0-0.2,0-0.3,0C82.6,36.9,81,41.3,79.5,45.8z"/>
		<path d="M283.2,36.4c0-4.4,0-8.9,0-13.4c1.5,0,2.9,0,4.3,0c0,12.5,0,24.9,0,37.4c-1.4,0-2.8,0-4.3,0c0-1.1,0-2.1,0-3.1
			c-0.1-0.1-0.2-0.2-0.3-0.2c-1,1.9-2.7,2.9-4.6,3.5c-7.5,2.2-14.2-2-15.7-9.9c-0.7-3.6-0.5-7.1,0.8-10.5c2.8-7.4,10.6-8.9,16-6.4
			C280.8,34.4,281.9,35.5,283.2,36.4z M283.6,46.8c-0.5-1.9-0.7-4-1.5-5.7c-2.4-5.3-9.9-6.1-13.2-1.5c-2.7,3.8-2.6,11,0.2,14.7
			c3,4,9.4,3.8,12.2-0.2C282.9,51.8,283.3,49.4,283.6,46.8z"/>
		<path d="M239.3,48.2c0,3.6,1.1,6.5,4.3,8c3,1.4,6,1.5,8.7-0.6c0.9-0.7,1.5-1.9,2-3c0.3-0.6,0.5-0.9,1.2-0.9c1.1,0,2.2,0,3.4,0
			c-0.7,3.9-2.5,6.7-6.1,8.3c-7.9,3.4-16.1-0.9-17.7-9.4c-0.7-3.9-0.6-7.7,1.2-11.3c2.7-5.4,8.6-8,14.4-6.3c2.6,0.8,4.7,2.4,6.1,4.8
			c1.9,3.1,2.5,6.6,2.4,10.4C252.6,48.2,246,48.2,239.3,48.2z M254.5,44.1c-0.3-4.6-3.9-7.9-8.2-7.5c-3.9,0.3-7.1,3.9-6.8,7.5
			C244.4,44.1,249.4,44.1,254.5,44.1z"/>
		<path d="M192.1,60.4c-1.5,0-2.8,0-4.2,0c0-0.5-0.1-1-0.1-1.4c0-5.3,0-10.7,0-16c0-3.4-1.1-5.4-3.4-6.1c-3-0.9-6.6,0.2-8.3,2.6
			c-1.2,1.7-1.6,3.6-1.6,5.7c0,4.7,0,9.5,0,14.2c0,0.3,0,0.7-0.1,1.1c-1.4,0-2.8,0-4.2,0c0-12.5,0-24.9,0-37.4c1.4,0,2.8,0,4.3,0
			c0,4.6,0,9.2,0,14c2.9-4.2,6.9-4.9,11.2-4.1c3.9,0.7,6.1,3.1,6.3,7.7C192.4,47.1,192.1,53.7,192.1,60.4z"/>
		<path d="M45.5,60.4c-1.4,0-2.8,0-4.2,0c0-9,0-18,0-27.1c1.3,0,2.6,0,4,0c0,1.2,0,2.5,0,4.1c0.5-0.5,0.7-0.7,0.9-1
			c3-4,9.4-5.2,13.6-2.5c2.4,1.5,3.4,3.9,3.5,6.5c0.1,6.6,0,13.2,0,19.9c-1.4,0-2.8,0-4.3,0c0-0.5-0.1-0.9-0.1-1.4
			c0-5.4,0-10.8,0-16.2c0-3.3-1-5.1-3.3-5.9c-2.8-1-6.5,0.1-8.2,2.2c-1.4,1.8-1.9,3.9-1.9,6.1c0,4.6,0,9.3,0,13.9
			C45.6,59.5,45.5,59.9,45.5,60.4z"/>
		<path d="M12.7,33.2c0.3,0,0.7,0,1.1,0c1,0,2,0,3.1,0c0,0.6,0,1,0,1.5c0,5.3,0,10.6,0,15.9c0,3.8,1.2,5.8,3.9,6.3
			c3.7,0.8,7.3-0.9,8.5-4.1c0.5-1.4,0.8-2.9,0.8-4.4c0.1-5,0-10,0-15.1c1.5,0,2.9,0,4.3,0c0,9,0,18,0,27c-1.3,0-2.6,0-4,0
			c0-1.3,0-2.5,0-4.1c-0.4,0.5-0.7,0.7-0.8,1c-3,4.1-10,5.1-14.1,2.1c-2.3-1.7-3-4.2-3-6.8c-0.1-6.3,0-12.7,0-19
			C12.5,33.5,12.6,33.4,12.7,33.2z"/>
		<path d="M160.8,50.5c1.5,0,2.9,0,4.4,0c-0.4,3.4-1.6,6.3-4.3,8.3c-6.3,4.8-16.4,1.9-18.8-5.6c-0.8-2.4-0.9-5.1-0.9-7.7
			c-0.1-1.5,0.4-3,0.8-4.5c2.2-6.9,8.3-9.8,15.8-8c4.3,1.1,6.9,4.2,7.3,8.8c-1.5,0-2.9,0-4.4,0c0-0.1-0.1-0.1-0.1-0.2
			c-1.1-3.4-2.8-4.9-5.9-5.2c-3.5-0.3-6.4,1.2-7.8,4.3c-1.7,3.9-1.8,7.9-0.1,11.9c1.3,3.1,4.1,4.6,7.3,4.3c3.7-0.3,5.6-2,6.5-5.7
			C160.6,51.1,160.7,50.8,160.8,50.5z"/>
		<path d="M220.3,55.5c0.8-2.6,1.7-5.1,2.5-7.7c1.4-4.3,2.8-8.6,4.1-13c0.4-1.3,1-1.7,2.3-1.6c0.9,0.1,1.8,0,2.9,0
			c-0.9,2.5-1.7,5-2.6,7.4c-2.2,6.2-4.5,12.4-6.7,18.7c-0.3,0.9-0.7,1.2-1.6,1.2c-3.5,0-3.5,0-4.7-3.3c-2.8-7.7-5.6-15.3-8.4-23
			c-0.1-0.2-0.1-0.5-0.2-0.9c1.5,0,2.9-0.1,4.3,0.1c0.4,0,0.8,0.7,0.9,1.1c2.1,6.4,4.3,12.8,6.4,19.2c0.2,0.6,0.4,1.2,0.6,1.8
			C220.1,55.4,220.2,55.5,220.3,55.5z"/>
		<path d="M203.4,60.4c-1.5,0-2.8,0-4.2,0c0-9,0-18,0-27.1c1.4,0,2.8,0,4.2,0C203.4,42.3,203.4,51.3,203.4,60.4z"/>
		<path d="M199.1,22.9c1.4,0,2.8,0,4.2,0c0,1.8,0,3.6,0,5.4c-1.4,0-2.8,0-4.2,0C199.1,26.6,199.1,24.9,199.1,22.9z"/>
	</g>
</g>
</svg>
