<?xml version="1.0" encoding="utf-8"?>
<!-- Generator: Adobe Illustrator 21.0.0, SVG Export Plug-In . SVG Version: 6.00 Build 0)  -->
<svg version="1.1" xmlns="http://www.w3.org/2000/svg" xmlns:xlink="http://www.w3.org/1999/xlink" x="0px" y="0px"
	 viewBox="0 0 150 150" style="enable-background:new 0 0 150 150;" xml:space="preserve">
<style type="text/css">
	.st0{display:none;}
	.st1{display:inline;}
</style>
<g id="Layer_1" class="st0">
	<rect x="8" y="13" class="st1" width="139" height="126"/>
</g>
<g id="Layer_2">
	<path d="M126,121.5H24c-6.9,0-12.5-5.6-12.5-12.5V44c0-6.9,5.6-12.5,12.5-12.5h102c6.9,0,12.5,5.6,12.5,12.5v65
		C138.5,115.9,132.9,121.5,126,121.5z M24,41.5c-1.4,0-2.5,1.1-2.5,2.5v65c0,1.4,1.1,2.5,2.5,2.5h102c1.4,0,2.5-1.1,2.5-2.5V44
		c0-1.4-1.1-2.5-2.5-2.5H24z"/>
	<path d="M75.5,91.5c-1.2,0-2.3-0.4-3.3-1.2L18.1,43.5c-2.1-1.8-2.3-5-0.5-7.1c1.8-2.1,5-2.3,7.1-0.5l50.8,44l49.9-43.9
		c2.1-1.8,5.2-1.6,7.1,0.4c1.8,2.1,1.6,5.2-0.4,7.1L78.8,90.3C77.9,91.1,76.7,91.5,75.5,91.5z"/>
</g>
</svg>
