<?xml version="1.0" encoding="utf-8"?>
<!-- Generator: Adobe Illustrator 21.0.0, SVG Export Plug-In . SVG Version: 6.00 Build 0)  -->
<svg version="1.1" id="Layer_1" xmlns="http://www.w3.org/2000/svg" xmlns:xlink="http://www.w3.org/1999/xlink" x="0px" y="0px"
	 viewBox="0 0 150 150" style="enable-background:new 0 0 150 150;" xml:space="preserve">
<style type="text/css">
	.st0{fill:#FFFFFF;}
</style>
<g id="adVQfX.tif">
	<g>
		<path d="M72.2,6.2c2.3,0,4.6,0,7,0c0.4,0.1,0.8,0.2,1.2,0.2c5.7,0.3,11.3,1.4,16.7,3.3c14.5,4.9,26.2,13.5,34.9,26.1
			c10.9,15.8,14.5,33.3,10.9,52.2c-3.4,17.7-12.7,31.9-27.4,42.4c-14.2,10.2-30.1,14.2-47.5,12.3c-10-1.1-19.3-4.2-27.8-9.5
			c-18.1-11.4-29-27.7-32.2-49c-0.3-2.1-0.5-4.1-0.7-6.2c0-2.1,0-4.3,0-6.4c0.2-1.6,0.4-3.3,0.5-4.9c1-9,3.8-17.4,8.2-25.2
			C21.7,31,29.6,22.7,39.7,16.5c8.1-5,16.8-8.3,26.2-9.6C68,6.6,70.1,6.4,72.2,6.2z M50.3,58.4c-10.4,0-20.7,0-31,0
			c-3.1,10.9-3.1,21.7,0,32.5c10.4,0,20.6,0,31,0C49.4,80.1,49.4,69.3,50.3,58.4z M132.1,90.9c3-10.9,3-21.7,0-32.5
			c-10.3,0-20.6,0-31,0c0.9,10.9,0.9,21.6,0,32.5C111.5,90.9,121.8,90.9,132.1,90.9z M91.3,90.9c1-10.9,1-21.7,0-32.5
			c-10.5,0-20.7,0-31.1,0c-1,10.9-1,21.7,0,32.5C70.6,90.9,80.9,90.9,91.3,90.9z M61.3,48.4c9.7,0,19.2,0,28.6,0
			c-0.8-7-3.5-18.3-7.2-25c-1.2-2.2-2.7-4.3-4.4-6.1c-1.7-1.8-3.4-1.7-5.3,0c-1,0.9-1.9,1.9-2.6,3C65.1,28.9,63.1,38.6,61.3,48.4z
			 M90.1,100.9c-9.7,0-19.2,0-28.7,0c1.4,8.7,3.2,17.1,7.2,24.9c1.2,2.3,2.8,4.4,4.6,6.3c1.6,1.7,3.3,1.6,5.1,0c1-0.9,2-2,2.7-3.1
			C86.4,120.4,88.3,110.8,90.1,100.9z M60.1,18.3c-5.5,0.5-17.3,7-23.9,13.1c-5.3,4.9-9.6,10.5-12.9,17.1c0.4,0,0.6,0.1,0.7,0.1
			c8.8,0,17.6,0,26.3,0c1,0,1.2-0.4,1.3-1.2c1.1-7.1,2.6-14.2,5.1-21C57.8,23.6,59,21,60.1,18.3z M91.2,18.3
			c0.6,1.2,1.1,2.3,1.6,3.4c3.6,8.2,5.6,16.8,6.9,25.6c0.2,1.1,0.5,1.4,1.6,1.4c8.5,0,17,0,25.5,0c0.4,0,0.8-0.1,1.2-0.1
			C123.4,36,103.2,19.4,91.2,18.3z M23.2,100.8c3.9,7.6,8.9,14,15.3,19.2c6.4,5.2,13.6,9,21.8,11.3c-0.6-1.4-1.2-2.5-1.7-3.6
			c-3.6-8.1-5.6-16.7-6.9-25.4c-0.2-1.1-0.5-1.5-1.7-1.4c-8.5,0-16.9,0-25.4,0C24.2,100.8,23.8,100.8,23.2,100.8z M128.3,100.8
			c-0.8,0-1.4,0-1.9,0c-7.8,0-15.6,0-23.4,0c-3.1,0-3,0-3.5,3c-1.6,9.2-3.7,18.2-8,26.6c-0.1,0.2-0.1,0.4-0.3,0.9
			C107.9,126.3,120.1,116.2,128.3,100.8z"/>
		<path class="st0" d="M23.2,100.8c0.6,0,1,0,1.4,0c8.5,0,16.9,0,25.4,0c1.1,0,1.5,0.3,1.7,1.4c1.3,8.7,3.3,17.3,6.9,25.4
			c0.5,1.1,1.1,2.2,1.7,3.6c-8.2-2.2-15.4-6-21.8-11.3C32.1,114.7,27.1,108.4,23.2,100.8z"/>
	</g>
</g>
</svg>
